<?xml version="1.0" standalone="no"?>
<!DOCTYPE svg PUBLIC "-//W3C//DTD SVG 20010904//EN"
 "http://www.w3.org/TR/2001/REC-SVG-20010904/DTD/svg10.dtd">
<svg version="1.0" xmlns="http://www.w3.org/2000/svg"
 width="549.000000pt" height="540.000000pt" viewBox="0 0 549.000000 540.000000"
 preserveAspectRatio="xMidYMid meet">

<g transform="translate(0.000000,540.000000) scale(0.100000,-0.100000)"
fill="#000000" stroke="none">
<path d="M0 4371 l0 -1029 41 12 c23 7 47 20 54 29 16 23 41 21 66 -4 11 -11
36 -27 55 -35 19 -8 37 -21 40 -28 3 -7 22 -21 43 -30 39 -18 72 -56 49 -56
-192 -3 -235 -26 -165 -90 17 -16 37 -30 43 -30 6 0 22 -10 35 -22 14 -13 37
-29 52 -35 20 -9 27 -20 26 -35 -4 -50 2 -79 21 -95 27 -23 25 -39 -5 -59 -17
-11 -27 -29 -31 -55 -4 -22 -10 -42 -14 -44 -5 -3 -57 -5 -117 -5 -59 0 -127
-3 -150 -6 l-43 -6 0 -518 0 -518 28 -30 29 -31 99 13 c55 7 110 18 122 25 33
18 113 41 141 41 24 0 24 0 18 -80 -7 -92 -9 -95 -60 -140 -33 -29 -51 -35
-126 -46 -112 -17 -181 -53 -181 -94 0 -19 -11 -37 -35 -59 l-35 -30 0 -95 c0
-88 1 -94 22 -99 l22 -6 -22 -24 c-20 -21 -22 -34 -22 -120 l0 -97 38 0 c31 0
207 -45 222 -57 3 -3 -6 -12 -19 -22 -25 -19 -21 -41 8 -41 23 0 41 19 41 43
0 17 5 19 42 13 23 -4 51 -16 61 -26 10 -11 30 -20 45 -21 42 -1 137 -23 153
-35 8 -6 55 -17 104 -24 50 -8 104 -21 121 -31 17 -9 58 -20 92 -24 58 -7 62
-8 56 -30 -3 -12 -1 -26 4 -29 17 -10 42 5 42 25 0 22 15 25 23 5 3 -8 32 -20
64 -26 32 -6 72 -17 88 -25 17 -7 57 -19 90 -26 33 -7 72 -18 86 -25 14 -7 59
-20 100 -30 41 -9 110 -25 154 -36 44 -11 94 -21 110 -23 17 -2 47 -11 67 -19
21 -9 48 -16 60 -16 13 0 54 -16 91 -35 38 -19 76 -35 86 -35 9 0 23 -6 29
-12 9 -9 15 -10 20 -2 4 6 35 14 70 18 64 7 112 23 112 37 0 10 57 29 64 22 3
-4 6 -14 6 -24 0 -31 36 -41 137 -37 85 3 97 5 114 27 10 13 19 38 19 57 0 18
9 48 20 66 23 38 27 121 7 153 -36 61 -61 84 -98 90 -28 5 -42 14 -52 33 -8
15 -22 41 -31 57 -23 43 -21 59 7 50 12 -3 63 -15 112 -25 50 -9 115 -27 145
-39 30 -11 64 -21 75 -21 12 0 25 -4 31 -9 5 -4 32 -14 59 -21 112 -28 152
-45 193 -78 45 -36 130 -72 170 -72 15 0 26 -7 29 -20 6 -23 23 -27 23 -6 0
11 12 15 41 14 24 0 45 6 52 15 11 13 96 47 119 47 4 0 8 -11 8 -25 0 -32 26
-45 89 -45 62 0 203 20 214 30 5 4 3 34 -4 68 -11 52 -10 63 3 84 31 47 32 84
3 143 -15 30 -30 55 -34 55 -4 0 -21 13 -39 30 -18 16 -43 31 -55 31 -12 1
-33 2 -47 3 -24 1 -26 6 -38 90 -11 78 -10 91 3 106 9 9 13 25 9 34 -4 10 -1
16 9 16 9 0 19 -9 22 -20 l6 -20 26 20 c20 15 29 17 39 9 8 -6 14 -18 14 -25
0 -23 57 -18 70 6 14 25 30 26 37 1 4 -16 18 -20 74 -26 38 -4 66 -11 63 -16
-6 -10 5 -12 54 -9 18 1 44 -6 58 -14 13 -9 24 -12 24 -6 0 16 66 12 80 -5 8
-10 18 -12 29 -6 19 10 81 3 81 -10 0 -4 16 -7 36 -5 23 1 38 -2 41 -11 6 -17
30 -17 36 0 3 9 13 7 37 -7 18 -10 30 -14 26 -8 -3 6 -2 13 4 17 19 12 23 -25
5 -45 -18 -19 -17 -20 6 -20 32 0 69 11 69 20 0 4 -10 12 -22 18 -22 10 -22
11 -3 12 110 9 162 6 192 -12 29 -17 32 -18 48 -1 16 15 18 15 29 1 8 -10 17
-13 27 -8 16 9 128 6 175 -5 25 -6 35 -3 52 15 20 22 22 22 46 6 21 -13 24
-14 20 -1 -8 19 24 22 84 9 29 -6 19 -24 -14 -24 -19 0 -24 -5 -24 -25 0 -14
8 -29 19 -35 28 -15 31 -13 43 21 8 23 15 29 29 26 21 -6 25 3 8 20 -16 16 4
25 37 17 l27 -7 -23 -17 -23 -18 49 -11 c51 -12 80 -15 127 -13 l27 2 0 110 0
110 -29 0 c-16 0 -41 -4 -55 -10 -14 -5 -56 -10 -93 -11 -38 0 -87 -5 -111
-10 -31 -7 -50 -6 -70 4 -16 8 -39 11 -57 7 -16 -4 -73 -5 -125 -4 -483 15
-463 14 -476 33 -9 13 -32 20 -74 24 -75 8 -85 14 -65 34 18 17 16 44 -2 51
-8 2 -13 -5 -13 -18 0 -24 -5 -24 -165 -3 l-60 8 32 23 c17 12 38 19 47 16 9
-4 16 -1 16 6 0 7 7 10 15 6 8 -3 20 3 27 12 12 16 59 42 77 42 5 0 11 -9 14
-21 8 -32 25 -14 25 27 0 19 7 43 16 53 9 10 20 51 26 96 8 65 15 84 37 107
25 26 28 36 28 101 -1 40 -5 100 -9 135 -8 57 -7 65 12 85 16 17 22 40 27 102
7 88 -13 220 -33 220 -6 0 -17 8 -25 19 -17 24 -73 43 -167 56 -41 6 -84 15
-95 20 -11 4 -28 11 -39 14 -14 5 -17 12 -12 31 4 17 0 31 -14 45 -27 27 -44
25 -60 -5 -17 -33 -36 -32 -52 2 -15 32 -42 40 -139 42 -36 0 -69 4 -72 8 -4
3 -1 16 6 27 8 12 19 62 27 111 7 50 16 95 20 100 12 16 2 149 -16 212 -9 32
-34 95 -56 140 -42 87 -43 85 4 121 14 11 22 10 54 -8 27 -14 57 -20 102 -20
46 0 64 -4 68 -15 4 -8 12 -15 20 -15 8 0 14 -4 14 -10 0 -5 11 -10 25 -10 14
0 25 5 25 11 0 8 5 8 15 -1 15 -12 37 -3 57 25 5 6 12 5 20 -3 15 -15 130 -16
144 -2 7 7 15 2 24 -14 7 -14 22 -26 34 -28 15 -2 21 -10 21 -28 0 -19 8 -27
33 -36 17 -5 37 -15 43 -21 6 -6 17 -9 24 -7 6 3 16 -1 22 -8 13 -17 22 -78
11 -78 -4 0 -8 -7 -8 -15 0 -8 5 -15 10 -15 6 0 10 -9 10 -20 0 -10 14 -33 30
-50 17 -17 30 -37 30 -45 0 -8 12 -18 28 -21 43 -11 54 -24 46 -58 -6 -30 -6
-31 13 -14 18 17 21 17 57 -2 21 -10 46 -25 55 -33 9 -8 26 -18 38 -21 11 -4
28 -18 37 -31 9 -14 25 -25 34 -25 11 0 25 -14 35 -35 9 -20 29 -41 44 -47 16
-7 30 -15 33 -19 3 -3 15 -11 28 -18 12 -6 22 -17 22 -24 0 -7 9 -18 20 -25
11 -7 32 -38 45 -68 15 -35 32 -58 45 -61 21 -6 23 -12 20 -50 -1 -19 4 -23
27 -23 22 0 37 -12 68 -51 22 -27 48 -59 58 -70 9 -10 17 -23 17 -28 0 -5 7
-14 15 -21 8 -7 15 -21 15 -32 0 -10 12 -30 27 -44 15 -14 28 -31 28 -37 1
-25 29 -97 37 -97 4 0 8 781 8 1735 l0 1735 -2745 0 -2745 0 0 -1029z m1255
618 c17 -9 49 -20 73 -24 24 -4 56 -13 70 -21 35 -18 86 -18 102 1 7 8 16 13
20 10 5 -3 17 6 28 20 13 16 33 27 57 30 21 2 45 7 54 10 19 6 81 -41 81 -61
0 -7 12 -24 26 -37 15 -14 24 -31 22 -38 -3 -9 -7 -9 -18 3 -11 11 -24 13 -64
5 -53 -10 -76 -28 -76 -59 0 -9 6 -22 13 -28 73 -60 103 -81 123 -86 13 -3 24
-10 24 -14 0 -13 90 -40 131 -40 57 0 68 22 33 67 -15 21 -50 59 -78 85 -28
27 -46 48 -41 49 27 3 61 -4 81 -18 13 -8 35 -13 51 -11 44 5 153 -23 163 -41
4 -9 24 -34 43 -55 19 -20 38 -50 41 -64 3 -15 27 -44 53 -66 l47 -39 89 7
c50 3 97 2 107 -4 11 -6 20 -26 24 -57 4 -33 13 -52 26 -61 11 -7 20 -19 20
-27 0 -13 56 -35 91 -35 9 0 52 -9 95 -21 44 -11 94 -24 113 -29 19 -5 38 -16
43 -24 5 -9 16 -16 23 -16 9 0 15 -11 16 -27 2 -40 2 -43 22 -99 22 -65 42
-74 156 -74 82 0 89 -2 113 -27 14 -16 33 -43 42 -61 10 -18 25 -35 34 -38 9
-3 26 -10 37 -14 11 -5 29 -10 39 -12 32 -5 29 -26 -6 -43 -70 -33 -86 -46
-97 -75 -16 -47 -47 -55 -126 -35 -100 25 -190 29 -227 10 -17 -8 -52 -15 -77
-15 -58 0 -197 -66 -215 -101 -7 -15 -27 -28 -58 -37 -47 -13 -108 -68 -108
-96 0 -8 -17 -28 -37 -45 -156 -131 -171 -153 -174 -252 -2 -67 -11 -87 -65
-152 -35 -42 -137 -117 -160 -117 -8 0 -24 -20 -36 -45 l-22 -44 28 -79 c23
-67 26 -89 21 -139 -6 -52 -13 -66 -52 -111 -25 -29 -54 -52 -64 -52 -11 0
-19 -7 -19 -15 0 -8 -11 -22 -24 -30 -31 -21 -39 -63 -21 -121 17 -58 7 -162
-22 -214 -17 -31 -26 -36 -69 -41 -81 -11 -141 -35 -198 -81 -22 -18 -28 -32
-28 -61 0 -38 -9 -49 -43 -54 -50 -8 -166 -34 -189 -43 -14 -5 -76 -19 -138
-31 -62 -12 -124 -26 -138 -31 -14 -5 -45 -13 -70 -18 -25 -4 -76 -17 -115
-28 -38 -11 -72 -19 -76 -16 -11 7 -5 60 10 77 7 9 17 14 23 11 13 -8 86 6
101 19 16 15 100 44 153 53 30 4 41 11 40 23 -1 12 6 15 27 13 23 -3 27 0 27
22 0 14 -9 31 -21 39 -21 15 -90 126 -114 183 -7 18 -15 58 -17 89 l-3 58 130
1 c105 1 136 4 163 19 67 36 -2 44 -95 10 -47 -17 -88 -13 -156 17 -53 24 -66
39 -102 115 -15 33 -32 68 -36 77 -5 10 -9 29 -9 42 0 14 -4 28 -10 31 -5 3
-10 21 -10 38 0 18 -9 46 -20 62 -12 19 -20 47 -20 76 0 25 -5 50 -12 57 -24
24 6 30 70 15 l62 -16 0 -66 c0 -66 17 -111 42 -111 7 0 21 -8 32 -19 24 -21
134 -51 189 -51 46 0 70 31 61 78 -4 18 -2 32 3 32 15 0 111 -36 125 -47 7 -5
35 -18 62 -29 27 -10 59 -28 72 -41 13 -13 27 -23 32 -23 5 0 21 -35 36 -77
40 -116 38 -111 46 -82 9 33 -3 158 -16 167 -6 4 -20 22 -33 40 -12 17 -31 32
-41 32 -18 0 -113 44 -140 66 -8 6 -43 21 -78 33 -35 12 -73 28 -85 35 -12 8
-42 20 -67 26 -24 7 -49 18 -55 25 -5 7 -37 19 -70 25 -33 7 -70 18 -82 26
-12 8 -46 19 -75 25 -58 12 -157 61 -184 90 -16 17 -16 19 1 25 10 4 32 2 49
-4 44 -16 76 -15 83 3 9 26 -24 51 -93 70 -36 10 -68 24 -71 31 -2 7 -26 20
-52 29 -27 9 -58 26 -70 39 -12 13 -35 26 -50 29 -20 4 -31 14 -35 32 -4 14
-12 25 -19 25 -18 0 -82 80 -102 126 -18 43 -47 74 -70 74 -19 0 -20 16 0 24
16 6 45 -2 45 -13 0 -4 15 -15 33 -26 17 -10 38 -27 45 -37 7 -10 20 -18 29
-18 9 0 28 -13 42 -29 14 -15 39 -31 55 -35 16 -4 41 -20 55 -35 14 -15 38
-31 52 -34 14 -4 31 -18 37 -32 6 -14 20 -25 31 -25 10 0 24 -7 31 -15 19 -23
121 -75 147 -75 28 0 40 24 23 46 -15 18 -6 30 31 39 24 6 27 3 41 -47 10 -36
21 -56 36 -63 12 -5 22 -17 22 -27 0 -16 86 -98 104 -98 4 0 17 -11 27 -24 11
-15 39 -29 69 -37 27 -7 50 -16 50 -20 0 -15 116 -31 181 -26 36 3 93 15 126
26 60 20 151 73 165 97 4 6 19 15 33 18 14 4 25 10 25 14 0 4 15 24 33 43 58
64 66 77 97 156 25 65 30 92 30 165 0 48 -5 121 -11 163 l-12 76 54 49 c30 27
59 49 66 50 24 0 26 41 2 66 -12 13 -26 24 -31 24 -13 0 -112 -63 -121 -77
-12 -20 -24 -15 -31 12 -4 14 -13 25 -20 25 -8 0 -21 11 -30 25 -10 14 -28 30
-42 35 -29 11 -31 33 -5 57 11 10 27 41 36 70 9 28 23 54 31 57 22 8 17 33 -8
40 -53 14 -74 7 -91 -29 -9 -19 -21 -35 -26 -35 -6 0 -15 -18 -21 -41 -13 -48
-33 -58 -72 -36 -17 9 -43 17 -59 17 l-29 0 7 63 c4 34 7 76 8 92 0 30 0 30
-55 30 l-55 0 -3 -82 c-2 -48 -8 -85 -15 -91 -14 -11 -141 -22 -155 -13 -5 3
-11 15 -13 27 -4 21 48 82 89 103 28 15 29 50 1 85 -32 41 -64 29 -146 -54
-20 -20 -26 -22 -33 -10 -6 8 -10 18 -10 21 0 4 -13 12 -30 19 -16 7 -30 16
-30 21 0 5 -11 14 -25 19 -32 12 -35 64 -5 80 11 6 20 17 20 24 0 8 6 26 14
41 18 35 7 67 -27 79 -30 11 -76 -8 -85 -34 -2 -8 -16 -41 -30 -73 l-25 -58
-51 3 c-48 3 -51 5 -48 28 2 14 5 55 9 93 l5 67 -61 0 c-59 0 -61 1 -61 25 0
18 7 28 25 35 14 5 25 17 25 28 0 10 14 31 30 47 17 16 30 35 30 42 0 7 11 20
24 28 13 9 26 25 29 35 3 11 16 24 30 29 14 6 28 19 32 30 5 18 15 21 58 21
56 0 58 -2 100 -80 10 -19 26 -42 34 -50 14 -13 15 -13 8 5 -4 11 -8 25 -9 31
-1 6 -14 25 -29 43 -14 18 -31 49 -37 71 -6 23 -18 41 -29 45 -10 3 -29 14
-41 25 -26 23 -77 26 -159 10 -62 -12 -86 -1 -102 47 -5 17 -17 37 -25 43 -7
7 -14 23 -14 35 0 21 3 22 45 14 25 -5 55 -15 67 -23 13 -8 55 -20 94 -27 65
-10 73 -10 112 10 23 12 42 26 42 31 0 11 80 28 100 21 8 -3 29 -13 45 -22z
m-496 -670 c-2 -62 -19 -93 -41 -71 -8 8 -8 26 1 69 15 68 19 75 32 67 5 -3 9
-32 8 -65z m-134 -79 c3 -5 -1 -10 -10 -10 -9 0 -13 5 -10 10 3 6 8 10 10 10
2 0 7 -4 10 -10z m372 -51 c23 -5 58 -20 79 -34 20 -14 42 -25 49 -25 7 0 25
-19 41 -42 16 -24 37 -52 47 -62 9 -11 17 -24 17 -30 0 -6 12 -20 27 -31 32
-26 26 -38 -35 -65 -25 -11 -54 -28 -64 -38 -51 -51 -55 -51 -92 -13 -73 76
-238 22 -266 -87 -22 -90 37 -202 107 -202 19 0 33 -5 34 -12 1 -7 2 -56 3
-108 1 -52 6 -110 10 -127 8 -31 7 -34 -30 -49 -60 -25 -94 -22 -143 14 -24
18 -50 32 -57 32 -7 0 -21 11 -32 25 -11 14 -27 25 -35 25 -8 0 -21 7 -28 16
-7 9 -37 30 -66 46 -29 16 -53 33 -53 37 0 4 -12 13 -26 20 -14 6 -45 28 -69
48 -49 40 -60 72 -70 203 -9 104 27 219 89 289 24 27 45 53 47 58 5 11 67 43
84 43 8 0 19 8 24 18 10 19 64 37 172 57 73 13 155 11 236 -6z m645 -284 c36
-4 68 -15 89 -31 18 -13 39 -24 46 -24 7 0 20 -11 29 -25 9 -14 21 -25 28 -25
6 0 22 -24 35 -52 13 -29 30 -61 39 -70 17 -20 41 -139 41 -211 l1 -48 -37 8
c-117 25 -193 -6 -240 -96 -37 -68 5 -188 78 -225 40 -19 30 -48 -26 -78 -92
-50 -118 -60 -197 -75 -72 -13 -86 -13 -161 3 -45 9 -89 23 -98 31 -8 7 -21
13 -28 13 -14 0 -171 154 -171 168 0 6 -9 13 -19 17 -10 3 -21 18 -24 33 -23
112 -28 162 -25 270 3 113 5 125 25 142 12 9 25 30 29 44 4 15 17 32 30 38 13
6 24 17 24 23 0 19 68 83 111 105 21 11 39 25 39 30 0 6 7 10 15 10 8 0 23 5
33 10 20 12 179 28 237 24 22 -2 66 -6 97 -9z m1858 -72 c0 -43 -83 -124 -156
-153 -33 -13 -72 -34 -87 -47 -16 -13 -34 -23 -41 -23 -26 0 -75 -71 -81 -116
-3 -24 -7 -64 -10 -88 -4 -25 -14 -51 -25 -61 -11 -10 -20 -24 -20 -32 0 -7
-17 -21 -37 -29 -21 -9 -63 -29 -94 -45 -31 -16 -64 -29 -73 -29 -9 0 -30 -13
-48 -30 -17 -16 -37 -30 -44 -30 -8 0 -14 -9 -14 -19 0 -11 -9 -35 -20 -53
-16 -28 -49 -142 -50 -172 0 -6 9 0 20 12 l21 22 52 -27 c41 -22 64 -27 110
-26 64 1 121 -23 132 -56 3 -10 16 -24 30 -31 14 -7 32 -24 40 -36 9 -14 21
-21 30 -18 23 9 18 20 -20 43 -19 11 -35 27 -35 35 0 22 -51 73 -85 86 -18 7
-53 9 -90 5 -52 -5 -64 -3 -84 14 -13 12 -28 21 -32 21 -5 0 -13 9 -19 20 -15
29 5 97 41 138 16 18 29 37 29 42 0 6 7 10 16 10 9 0 39 14 66 30 26 17 57 30
68 30 10 0 22 5 25 10 3 6 15 10 25 10 10 0 26 8 36 17 10 10 27 23 38 28 12
6 23 24 26 40 5 29 7 30 66 33 33 2 92 -4 130 -13 38 -9 103 -23 144 -32 41
-9 89 -26 106 -38 18 -12 45 -27 61 -34 19 -8 34 -24 41 -45 7 -19 26 -50 42
-71 16 -21 34 -59 40 -89 21 -100 10 -325 -16 -347 -8 -6 -14 -21 -14 -33 0
-46 -11 -49 -98 -27 -44 12 -96 21 -115 21 -19 0 -40 6 -46 14 -7 8 -23 17
-36 20 -14 4 -41 18 -62 31 -35 24 -42 25 -122 19 -55 -5 -100 -14 -124 -27
-45 -23 -152 -48 -218 -50 l-47 -2 24 24 c29 28 30 37 7 50 -16 9 -84 -10
-106 -29 -12 -10 3 -40 20 -40 25 0 9 -23 -23 -33 -16 -5 -43 -15 -59 -22 -17
-8 -54 -17 -84 -21 -30 -4 -84 -18 -120 -32 -36 -13 -83 -26 -103 -29 l-38 -5
24 43 c14 24 30 64 36 89 13 49 63 110 91 110 10 0 21 5 25 11 4 8 -1 9 -17 4
-77 -22 -89 -30 -100 -62 -6 -18 -14 -33 -18 -33 -4 0 -16 -28 -26 -62 -25
-84 -49 -115 -94 -123 -20 -4 -55 -17 -78 -31 -23 -13 -50 -24 -60 -24 -29 -1
-59 -31 -77 -80 -10 -25 -23 -52 -31 -60 -7 -8 -18 -40 -25 -70 -6 -30 -18
-70 -26 -87 -15 -32 -16 -33 -79 -33 -71 0 -87 12 -57 41 29 27 36 75 23 170
-6 45 -11 91 -11 101 0 17 93 120 117 129 5 2 21 22 35 44 32 52 46 192 21
210 -9 7 -18 32 -20 62 -5 47 -3 51 26 72 17 12 31 29 31 37 0 8 6 14 13 14
28 1 85 37 118 75 67 77 89 118 89 166 0 76 16 110 72 160 29 25 63 51 76 58
12 6 28 26 36 44 19 47 97 123 133 130 20 4 38 19 56 46 21 32 36 42 81 55 30
9 61 16 69 16 9 0 18 4 21 9 7 11 71 21 171 27 72 4 85 2 127 -20 68 -36 158
-38 158 -3 0 7 20 33 45 60 40 43 49 47 90 47 42 0 45 -2 45 -27z m-2469 -13
c25 -14 26 -45 2 -34 -10 4 -34 6 -53 5 -44 -2 -78 -35 -91 -87 -9 -41 -5 -47
55 -90 32 -22 9 -29 -30 -8 -48 26 -54 34 -60 90 -7 56 11 100 48 121 28 15
102 17 129 3z m-901 -226 c0 -8 -5 -12 -10 -9 -6 4 -8 11 -5 16 9 14 15 11 15
-7z m75 -24 c3 -5 1 -10 -4 -10 -6 0 -11 5 -11 10 0 6 2 10 4 10 3 0 8 -4 11
-10z m3115 -72 c52 -17 116 -42 141 -55 45 -22 129 -91 129 -106 0 -13 -23 -8
-42 9 -11 10 -41 19 -75 21 -32 2 -83 11 -113 19 -31 9 -80 14 -115 12 l-60
-3 2 55 c3 65 8 80 25 80 7 0 56 -14 108 -32z m-3020 -108 c0 -5 -2 -10 -4
-10 -3 0 -8 5 -11 10 -3 6 -1 10 4 10 6 0 11 -4 11 -10z m1607 -17 l27 -18
-62 -3 c-54 -3 -62 -5 -62 -23 0 -11 -7 -22 -15 -25 -21 -9 -20 -92 2 -116 9
-10 23 -18 32 -18 14 0 14 -2 -1 -16 -14 -15 -19 -15 -51 1 -50 23 -60 39 -60
90 0 61 26 111 71 135 41 22 77 20 119 -7z m1797 -49 c11 -28 6 -39 -9 -20 -8
11 -15 23 -15 28 0 14 18 9 24 -8z m-3299 -4 c3 -5 2 -10 -4 -10 -5 0 -13 5
-16 10 -3 6 -2 10 4 10 5 0 13 -4 16 -10z m3655 -70 c0 -5 -4 -10 -10 -10 -5
0 -10 5 -10 10 0 6 5 10 10 10 6 0 10 -4 10 -10z m-3680 -110 c0 -5 -6 -10
-14 -10 -8 0 -18 5 -21 10 -3 6 3 10 14 10 12 0 21 -4 21 -10z m264 -179 c17
-10 50 -22 73 -26 24 -4 45 -11 48 -15 7 -12 -17 -103 -30 -113 -23 -17 -122
15 -148 48 -8 10 -1 101 9 117 7 12 13 10 48 -11z m512 -167 c72 -34 84 -46
84 -89 0 -32 -6 -34 -70 -24 -84 13 -93 16 -127 48 -25 22 -33 38 -33 64 0 18
3 36 6 40 11 11 67 -5 140 -39z m-336 -10 c0 -23 -1 -24 -16 -10 -8 9 -12 20
-9 26 12 19 25 10 25 -16z m2808 -410 c76 -12 102 -20 119 -39 12 -12 26 -25
30 -26 16 -7 66 -121 56 -128 -6 -3 -15 -16 -21 -28 -12 -21 -10 -21 44 -20
52 1 58 -1 85 -33 29 -34 74 -110 65 -110 -2 0 0 -17 5 -37 10 -45 -7 -161
-27 -183 -7 -9 -20 -32 -29 -53 -8 -20 -22 -37 -29 -37 -8 0 -17 -8 -20 -17
-3 -10 -50 -64 -104 -119 -69 -72 -106 -103 -127 -107 -73 -14 -91 -21 -112
-46 -12 -14 -22 -38 -23 -52 -1 -63 -64 -168 -81 -136 -9 15 19 116 38 138 19
23 -24 63 -92 85 -107 34 -193 103 -219 173 -15 43 -15 53 -1 121 9 41 19 77
23 80 5 3 23 26 41 53 17 26 36 47 42 47 6 0 16 15 24 33 7 18 25 39 39 46 14
8 28 26 31 43 4 15 15 33 26 38 16 9 19 22 19 85 0 100 -16 167 -46 196 -13
12 -24 26 -24 30 0 4 30 7 66 7 36 0 68 3 72 6 8 9 22 8 130 -10z m-1623 -324
c3 -5 26 -10 50 -10 38 0 47 -4 70 -35 37 -48 27 -84 -38 -147 -27 -26 -55
-48 -61 -48 -6 0 -38 -14 -71 -31 -91 -46 -158 -67 -232 -74 -79 -8 -80 -7
-134 92 -34 61 -34 62 -17 95 9 18 19 44 22 58 12 51 32 63 138 86 108 23 262
31 273 14z m-1525 -97 c8 -3 47 -7 85 -10 81 -6 101 -14 108 -45 3 -13 15 -58
27 -100 20 -71 21 -79 6 -93 -9 -9 -16 -26 -16 -37 0 -16 4 -19 23 -14 30 10
141 35 206 47 30 6 64 16 75 24 12 7 66 20 121 30 55 10 111 23 125 30 24 12
55 21 213 61 73 18 90 13 81 -23 -8 -28 -37 -39 -164 -59 -58 -9 -118 -24
-135 -34 -16 -10 -75 -25 -129 -34 -55 -9 -107 -21 -117 -26 -10 -6 -33 -10
-51 -10 -18 0 -44 -6 -58 -13 -14 -8 -40 -17 -58 -20 -127 -26 -179 -60 -138
-90 13 -10 15 -20 8 -59 -16 -81 -62 -128 -62 -62 0 13 -2 24 -5 24 -17 0 -54
-34 -59 -54 -3 -13 -13 -27 -22 -30 -39 -15 -48 33 -9 54 30 16 34 55 6 63
-23 6 -32 0 -50 -35 -8 -16 -18 -28 -22 -28 -5 0 -20 -12 -34 -27 -21 -24 -28
-26 -43 -15 -9 7 -29 18 -44 25 -16 6 -28 17 -28 23 0 17 46 45 86 51 19 3 34
8 34 12 0 3 11 19 24 34 17 19 27 47 32 85 7 58 -1 240 -12 279 -7 27 -69 47
-110 37 -24 -6 -26 -5 -19 17 4 13 13 27 19 31 11 7 76 2 106 -9z m3931 -5 c1
-7 1 -18 0 -24 -1 -6 5 -17 13 -23 11 -9 11 -21 1 -69 -13 -66 -30 -101 -57
-120 -13 -10 -18 -26 -18 -61 0 -51 -23 -121 -40 -121 -6 0 -15 -11 -22 -25
-6 -13 -26 -31 -44 -40 -18 -8 -36 -20 -39 -25 -8 -13 -45 -13 -45 1 0 20 21
49 35 49 26 0 26 20 0 30 -25 10 -26 12 -22 82 3 40 5 74 6 76 1 1 11 -4 24
-12 13 -9 34 -12 50 -9 l28 6 -2 111 c-3 109 -2 111 20 114 14 2 26 14 33 32
5 16 17 31 26 33 33 9 52 7 53 -5z m-1674 -168 c29 -22 53 -26 70 -9 15 15 71
1 83 -21 7 -13 5 -27 -5 -47 -8 -15 -15 -35 -15 -44 0 -21 -27 -56 -36 -47 -4
4 -10 36 -13 70 -4 46 -10 63 -21 63 -20 0 -14 -94 7 -118 35 -39 -30 -137
-91 -137 -10 0 -16 -8 -16 -22 0 -12 -7 -29 -16 -39 -9 -10 -25 -53 -36 -96
-11 -43 -25 -81 -31 -85 -26 -16 -64 -6 -122 32 -16 11 -37 23 -45 27 -8 3
-29 19 -46 33 -23 20 -39 26 -57 23 -21 -4 -31 2 -55 36 -16 22 -35 54 -42 70
-11 26 -9 34 10 61 12 16 28 30 35 30 8 0 17 9 20 20 4 11 19 28 33 37 15 9
36 25 47 35 40 38 142 91 210 110 39 10 74 24 80 29 13 13 24 11 52 -11z
m-1052 -160 c3 -5 -1 -10 -9 -10 -9 0 -16 5 -16 10 0 6 4 10 9 10 6 0 13 -4
16 -10z m1269 -62 c-4 -18 -8 -60 -8 -93 -1 -55 1 -60 22 -63 12 -2 36 4 54
12 17 9 35 16 41 16 12 0 0 -66 -17 -94 -8 -12 -20 -43 -27 -69 -8 -27 -18
-52 -24 -57 -5 -5 -48 -4 -93 1 -53 6 -112 6 -160 0 -43 -5 -81 -6 -85 -2 -4
4 4 31 18 58 14 28 25 62 25 76 0 26 77 117 98 117 7 0 14 12 18 28 15 70 19
75 65 87 77 21 83 20 73 -17z m-1024 12 c0 -5 -5 -10 -11 -10 -5 0 -7 5 -4 10
3 6 8 10 11 10 2 0 4 -4 4 -10z m135 -80 c3 -5 1 -10 -4 -10 -6 0 -11 5 -11
10 0 6 2 10 4 10 3 0 8 -4 11 -10z m2010 -118 c0 -18 -20 -15 -23 4 -3 10 1
15 10 12 7 -3 13 -10 13 -16z m-2028 -48 c-3 -3 -12 -4 -19 -1 -8 3 -5 6 6 6
11 1 17 -2 13 -5z m187 -63 c3 -5 -1 -14 -9 -21 -11 -9 -19 -9 -35 3 -20 14
-21 15 -3 20 30 8 42 7 47 -2z m186 -31 c-6 -10 -15 -22 -21 -25 -19 -12 -22
4 -5 30 19 29 42 25 26 -5z m775 10 c3 -5 0 -18 -6 -28 -11 -17 -7 -25 26 -61
40 -43 64 -51 85 -26 22 26 28 17 41 -57 7 -40 18 -85 26 -100 16 -33 0 -48
-26 -24 -24 22 -173 23 -195 1 -8 -8 -18 -15 -23 -15 -5 0 -25 -11 -45 -25
-30 -21 -41 -23 -63 -15 -15 6 -41 10 -59 10 -43 0 -96 18 -122 42 -12 11 -28
20 -35 22 -8 1 -21 6 -29 11 -31 20 -85 45 -95 45 -6 0 -41 16 -78 36 -53 28
-67 40 -67 59 0 23 25 42 35 26 11 -18 129 -22 200 -7 46 10 96 13 142 9 39
-3 97 -2 128 2 47 5 58 11 65 31 5 13 16 24 25 24 8 0 22 11 31 25 17 26 29
31 39 15z m145 -37 c0 -5 -5 -15 -10 -23 -7 -11 -12 -12 -21 -3 -6 6 -8 16 -5
22 8 12 36 15 36 4z m-823 -23 c17 -14 21 -20 10 -20 -8 0 -17 -7 -21 -15 -7
-20 -46 -20 -46 1 0 17 18 54 26 54 3 0 17 -9 31 -20z m-137 -15 c0 -14 -4
-25 -10 -25 -11 0 -14 33 -3 43 11 11 13 8 13 -18z m2732 10 c0 -5 -5 -11 -11
-13 -6 -2 -11 4 -11 13 0 9 5 15 11 13 6 -2 11 -8 11 -13z m-1592 -87 c0 -26
5 -48 10 -48 14 0 31 -46 23 -65 -3 -9 -15 -15 -27 -13 -15 2 -22 12 -27 41
-3 21 -14 44 -24 51 -13 9 -19 25 -18 49 1 50 9 59 38 45 22 -10 25 -18 25
-60z m1525 -8 c-3 -5 -11 -10 -16 -10 -6 0 -7 5 -4 10 3 6 11 10 16 10 6 0 7
-4 4 -10z m-2695 -137 c0 -23 -18 -30 -35 -14 -6 5 -26 11 -45 13 -25 2 -35 8
-36 21 -1 12 -1 13 3 2 3 -10 17 -15 43 -15 31 0 39 4 44 23 5 18 8 20 16 7 5
-8 10 -25 10 -37z m-214 1 c-4 -12 -10 -14 -17 -7 -5 5 -7 17 -3 27 4 12 10
14 17 7 5 -5 7 -17 3 -27z m1464 -42 c0 -35 -41 -60 -59 -38 -19 23 4 66 34
66 21 0 25 -5 25 -28z m-1451 -24 c5 -13 14 -45 20 -73 7 -27 20 -59 30 -70
21 -22 54 -85 46 -85 -3 0 -13 4 -23 9 -25 14 -121 39 -172 45 -66 8 -164 -43
-192 -99 -11 -22 -22 -42 -24 -44 -7 -8 -54 22 -54 35 0 18 -29 25 -52 13 -22
-12 -68 -4 -68 11 0 6 -11 10 -24 10 -13 0 -41 7 -61 16 -21 9 -49 14 -62 11
-15 -3 -27 1 -30 9 -3 8 -15 14 -28 14 -25 0 -85 19 -98 30 -5 5 -6 17 -3 28
7 21 8 21 175 37 36 4 70 13 79 21 11 11 26 13 54 9 30 -5 44 -3 59 10 13 13
46 20 111 26 136 11 182 19 193 34 10 13 29 18 88 23 20 2 29 -3 36 -20z m207
-20 c4 -7 7 -28 5 -47 -1 -23 5 -41 20 -57 21 -23 22 -25 5 -43 -25 -28 -43
-17 -38 23 3 25 -1 37 -15 47 -11 8 -25 23 -31 34 -10 17 -11 18 -12 3 0 -10
-2 -18 -4 -18 -2 0 -11 -3 -20 -6 -11 -4 -16 0 -16 14 0 12 -4 24 -10 27 -5 3
-10 10 -10 16 0 12 47 12 55 -1 4 -6 12 -4 21 5 19 18 40 19 50 3z m-36 -148
c0 -5 -5 -10 -11 -10 -5 0 -7 5 -4 10 3 6 8 10 11 10 2 0 4 -4 4 -10z m113
-44 c7 -17 -11 -36 -34 -36 -22 0 -33 16 -25 35 7 19 52 19 59 1z"/>
<path d="M1488 4713 c-28 -33 1 -67 65 -78 65 -12 87 26 42 70 -29 30 -84 34
-107 8z"/>
<path d="M1230 4610 c0 -5 23 -10 52 -10 62 0 60 6 -4 14 -30 4 -48 3 -48 -4z"/>
<path d="M1460 4576 c0 -2 27 -26 60 -53 40 -31 68 -63 80 -92 11 -24 40 -62
65 -85 43 -41 48 -43 142 -54 90 -10 114 -10 102 3 -3 2 -39 10 -80 16 -40 6
-83 15 -94 19 -52 19 -75 35 -75 51 0 9 -18 40 -40 68 -22 28 -40 54 -40 59 0
4 -18 19 -40 32 -22 14 -40 28 -40 33 0 7 -40 10 -40 3z"/>
<path d="M2350 4461 c-21 -40 -6 -81 31 -81 9 0 19 -9 22 -19 5 -22 41 -30 78
-18 31 10 44 43 22 55 -8 5 -20 19 -26 31 -11 21 -72 50 -104 51 -7 0 -17 -9
-23 -19z"/>
<path d="M2280 4255 c-17 -21 -5 -91 23 -132 12 -18 26 -33 31 -33 5 0 42 -16
82 -35 79 -38 161 -48 183 -21 19 23 -4 95 -34 106 -13 5 -26 18 -30 30 -3 11
-21 27 -38 35 -18 8 -47 26 -66 40 -40 30 -130 36 -151 10z"/>
<path d="M2020 4211 c0 -5 7 -14 15 -21 8 -6 21 -36 29 -65 9 -29 23 -56 32
-59 24 -9 24 -6 5 50 -19 57 -81 130 -81 95z"/>
<path d="M2840 4143 c-55 -21 -30 -84 53 -131 50 -29 71 -28 85 3 20 44 15 66
-18 78 -17 6 -33 19 -36 29 -3 10 -14 18 -24 18 -10 0 -24 2 -32 4 -7 3 -20 2
-28 -1z"/>
<path d="M2143 4046 c2 -6 10 -11 18 -11 29 -1 165 -17 180 -21 22 -6 73 -80
64 -93 -3 -6 -3 -16 1 -22 14 -24 20 13 9 58 -8 33 -18 49 -34 55 -12 4 -29
15 -37 23 -10 10 -38 16 -80 17 -35 1 -78 2 -94 3 -19 1 -29 -2 -27 -9z"/>
<path d="M2420 3873 c0 -18 16 -24 71 -30 31 -3 49 -1 49 6 0 6 -20 11 -48 11
-26 0 -53 5 -60 12 -9 9 -12 9 -12 1z"/>
<path d="M2253 3719 c-3 -16 -9 -27 -13 -24 -15 10 -2 -56 15 -75 42 -47 105
-9 105 63 0 42 -17 58 -65 61 -33 3 -37 1 -42 -25z"/>
<path d="M1823 2937 c-16 -34 13 -70 53 -65 25 2 28 7 25 28 -8 61 -57 84 -78
37z"/>
<path d="M1642 2849 c-17 -27 0 -49 39 -49 33 0 43 13 35 46 -8 31 -55 34 -74
3z"/>
<path d="M1760 2795 c-18 -21 -4 -46 33 -59 27 -10 57 5 57 28 -1 37 -66 60
-90 31z"/>
<path d="M1763 2622 c-40 -26 -42 -29 -43 -77 0 -76 34 -97 84 -52 19 16 27
35 30 69 3 26 1 50 -4 53 -5 3 -7 12 -3 20 8 23 -17 18 -64 -13z"/>
<path d="M1699 2183 c-19 -5 -31 -47 -18 -60 5 -5 26 -7 48 -5 29 3 41 9 45
25 8 33 -28 53 -75 40z"/>
<path d="M2642 3542 c-63 -47 -88 -81 -93 -124 -4 -39 13 -79 36 -88 29 -11
105 7 128 32 10 10 22 18 26 18 5 0 16 16 25 35 9 19 23 38 32 43 20 11 28 70
15 105 -9 24 -15 27 -58 26 -41 0 -57 -7 -111 -47z"/>
<path d="M2579 3193 c-51 -31 -73 -98 -49 -144 16 -29 52 -23 94 15 35 33 37
38 34 88 -3 48 -5 53 -28 55 -14 2 -37 -4 -51 -14z"/>
<path d="M2295 2995 c-29 -7 -57 -23 -67 -36 -10 -13 -24 -31 -30 -39 -40 -46
-54 -152 -22 -164 35 -13 75 -6 98 19 13 14 28 25 34 25 6 0 29 24 52 53 35
47 40 61 40 105 0 50 -1 52 -27 51 -16 0 -50 -6 -78 -14z"/>
<path d="M2680 2875 c-7 -9 -11 -18 -8 -20 3 -3 11 1 18 10 7 9 11 18 8 20 -3
3 -11 -1 -18 -10z"/>
<path d="M2595 2800 c-3 -5 -2 -10 4 -10 5 0 13 5 16 10 3 6 2 10 -4 10 -5 0
-13 -4 -16 -10z"/>
<path d="M2233 2668 c-28 -13 -44 -95 -22 -109 22 -14 45 -11 66 9 22 20 47
87 38 102 -8 13 -54 12 -82 -2z"/>
<path d="M1775 3330 c-3 -5 -1 -10 4 -10 6 0 11 5 11 10 0 6 -2 10 -4 10 -3 0
-8 -4 -11 -10z"/>
<path d="M3460 2075 c0 -9 6 -12 15 -9 8 4 12 10 9 15 -8 14 -24 10 -24 -6z"/>
<path d="M3658 1832 c-51 -56 -60 -76 -49 -105 6 -14 14 -28 20 -31 15 -10 73
36 66 52 -3 7 -1 21 4 30 5 9 6 35 2 56 l-6 39 -37 -41z"/>
<path d="M3200 1073 c0 -11 5 -11 20 -3 11 6 20 12 20 13 0 2 -9 3 -20 3 -11
0 -20 -6 -20 -13z"/>
<path d="M2695 1040 c-3 -5 -2 -10 4 -10 5 0 13 5 16 10 3 6 2 10 -4 10 -5 0
-13 -4 -16 -10z"/>
<path d="M2265 830 c3 -5 8 -10 11 -10 2 0 4 5 4 10 0 6 -5 10 -11 10 -5 0 -7
-4 -4 -10z"/>
<path d="M4176 3219 c-2 -8 -7 -27 -11 -42 -6 -28 -5 -29 27 -22 18 4 36 9 41
12 11 7 8 33 -5 33 -6 0 -20 7 -30 16 -14 14 -18 14 -22 3z"/>
<path d="M3872 3198 c5 -15 28 -23 28 -10 0 5 -7 13 -16 16 -10 4 -14 1 -12
-6z"/>
<path d="M4341 3174 c0 -11 3 -14 6 -6 3 7 2 16 -1 19 -3 4 -6 -2 -5 -13z"/>
<path d="M3900 3144 c0 -8 5 -12 10 -9 6 4 8 11 5 16 -9 14 -15 11 -15 -7z"/>
<path d="M4446 3075 c4 -9 11 -14 16 -13 15 5 11 23 -6 26 -11 2 -14 -2 -10
-13z"/>
<path d="M80 2976 c0 -9 5 -16 10 -16 6 0 10 4 10 9 0 6 -4 13 -10 16 -5 3
-10 -1 -10 -9z"/>
<path d="M4480 2925 c0 -8 5 -15 10 -15 6 0 10 7 10 15 0 8 -4 15 -10 15 -5 0
-10 -7 -10 -15z"/>
<path d="M4381 2761 c-8 -5 -11 -16 -8 -25 10 -25 27 -19 27 9 0 28 0 28 -19
16z"/>
<path d="M4471 2663 c0 -12 -5 -25 -11 -28 -5 -3 -10 -24 -10 -46 0 -25 4 -38
10 -34 6 4 8 16 5 26 -4 11 -1 26 5 34 6 8 10 26 7 42 -3 21 -4 22 -6 6z"/>
<path d="M4111 2660 c-7 -3 -9 -14 -5 -24 8 -21 48 -17 52 5 3 18 -29 31 -47
19z"/>
<path d="M4058 2593 c6 -2 18 -2 25 0 6 3 1 5 -13 5 -14 0 -19 -2 -12 -5z"/>
<path d="M4230 2526 c0 -22 3 -27 11 -19 8 8 8 16 0 30 -9 16 -10 14 -11 -11z"/>
<path d="M4320 2510 c0 -5 5 -10 11 -10 5 0 7 5 4 10 -3 6 -8 10 -11 10 -2 0
-4 -4 -4 -10z"/>
<path d="M4450 2492 c0 -12 0 -25 0 -29 0 -5 6 -8 13 -8 13 0 11 34 -4 50 -5
5 -9 1 -9 -13z"/>
<path d="M4880 2480 c0 -5 5 -10 11 -10 5 0 7 5 4 10 -3 6 -8 10 -11 10 -2 0
-4 -4 -4 -10z"/>
<path d="M4380 2456 c0 -8 5 -18 10 -21 6 -3 10 3 10 14 0 12 -4 21 -10 21 -5
0 -10 -6 -10 -14z"/>
<path d="M4658 2373 c7 -3 16 -2 19 1 4 3 -2 6 -13 5 -11 0 -14 -3 -6 -6z"/>
<path d="M4580 2360 c0 -5 5 -10 10 -10 6 0 10 5 10 10 0 6 -4 10 -10 10 -5 0
-10 -4 -10 -10z"/>
<path d="M4875 2170 c-7 -12 2 -30 16 -30 5 0 9 9 9 20 0 21 -15 27 -25 10z"/>
<path d="M5290 2090 c0 -5 7 -10 15 -10 8 0 15 5 15 10 0 6 -7 10 -15 10 -8 0
-15 -4 -15 -10z"/>
<path d="M5358 2063 c-22 -5 -23 -26 -3 -43 18 -15 35 -5 35 20 0 22 -8 28
-32 23z"/>
<path d="M5287 1994 c-14 -15 -6 -34 14 -34 14 0 19 5 17 17 -3 18 -20 27 -31
17z"/>
<path d="M4991 1960 c30 -39 38 -43 59 -30 13 8 12 12 -5 29 -11 11 -33 23
-50 27 l-30 7 26 -33z"/>
<path d="M5386 1953 c-4 -9 -1 -23 7 -30 11 -11 16 -11 32 2 20 15 20 15 1 30
-25 19 -32 19 -40 -2z"/>
<path d="M5233 1834 c-8 -21 13 -42 28 -27 13 13 5 43 -11 43 -6 0 -13 -7 -17
-16z"/>
<path d="M5452 1653 c2 -17 10 -29 21 -31 13 -3 17 3 17 27 0 25 -4 31 -21 31
-16 0 -20 -5 -17 -27z"/>
<path d="M4862 1576 c1 -10 8 -17 13 -17 15 1 12 24 -3 29 -9 3 -13 -2 -10
-12z"/>
<path d="M4732 1551 c-15 -9 -4 -51 14 -51 7 0 18 9 24 20 8 15 7 21 -8 29
-10 5 -23 6 -30 2z"/>
<path d="M4797 1554 c-9 -10 2 -24 19 -24 8 0 14 7 14 15 0 15 -21 21 -33 9z"/>
<path d="M4921 1501 c-18 -12 -5 -31 20 -31 14 0 19 6 17 17 -4 20 -18 26 -37
14z"/>
<path d="M4400 1430 c0 -5 7 -10 15 -10 8 0 15 5 15 10 0 6 -7 10 -15 10 -8 0
-15 -4 -15 -10z"/>
<path d="M4994 1399 c-4 -7 1 -18 11 -26 29 -20 47 -16 43 10 -3 25 -41 36
-54 16z"/>
<path d="M4360 1060 c0 -5 5 -10 11 -10 5 0 7 5 4 10 -3 6 -8 10 -11 10 -2 0
-4 -4 -4 -10z"/>
<path d="M4292 1008 c2 -13 8 -23 13 -23 6 0 11 10 13 23 2 15 -2 22 -13 22
-11 0 -15 -7 -13 -22z"/>
<path d="M4817 984 c18 -28 56 -33 51 -7 -2 10 -16 20 -35 24 -31 6 -31 6 -16
-17z"/>
<path d="M4410 985 c0 -8 7 -15 15 -15 8 0 15 7 15 15 0 8 -7 15 -15 15 -8 0
-15 -7 -15 -15z"/>
<path d="M5310 965 c0 -10 7 -15 18 -13 21 4 19 22 -2 26 -10 2 -16 -3 -16
-13z"/>
<path d="M4303 943 c-4 -10 -11 -21 -17 -25 -17 -12 33 -9 55 2 10 6 19 17 19
25 0 22 -49 19 -57 -2z"/>
<path d="M4747 953 c-9 -9 12 -33 29 -33 8 0 14 9 14 20 0 19 -28 28 -43 13z"/>
<path d="M3970 905 c0 -9 5 -15 11 -13 6 2 11 8 11 13 0 5 -5 11 -11 13 -6 2
-11 -4 -11 -13z"/>
<path d="M5035 900 c-8 -26 -3 -33 19 -24 19 7 18 35 -1 41 -6 2 -14 -5 -18
-17z"/>
<path d="M4422 854 c1 -9 9 -19 16 -22 9 -3 13 2 10 14 -1 9 -9 19 -16 22 -9
3 -13 -2 -10 -14z"/>
<path d="M4263 819 c-18 -18 -3 -39 27 -39 34 0 46 15 30 35 -15 18 -42 19
-57 4z"/>
<path d="M45 801 c-9 -16 3 -31 26 -31 14 0 19 6 17 17 -4 20 -33 29 -43 14z"/>
<path d="M5000 785 c-19 -22 0 -37 41 -33 26 2 34 8 34 23 0 26 -55 34 -75 10z"/>
<path d="M4779 764 c-11 -14 -11 -18 6 -30 25 -19 40 -13 40 17 0 29 -26 37
-46 13z"/>
<path d="M4207 734 c-16 -16 -7 -44 14 -44 15 0 20 5 17 22 -3 22 -19 33 -31
22z"/>
<path d="M3830 681 c0 -27 19 -36 37 -18 18 18 9 37 -18 37 -12 0 -19 -7 -19
-19z"/>
<path d="M4912 664 c9 -9 21 -13 27 -10 20 13 11 26 -16 26 -25 0 -26 -1 -11
-16z"/>
<path d="M4230 601 c0 -12 6 -21 15 -21 8 0 15 4 15 9 0 5 -7 14 -15 21 -13
10 -15 9 -15 -9z"/>
<path d="M5243 610 c-25 -10 -31 -38 -10 -46 19 -7 89 25 84 39 -5 15 -45 19
-74 7z"/>
<path d="M4030 581 l-25 -19 28 -7 c31 -8 59 9 50 31 -7 19 -23 17 -53 -5z"/>
<path d="M4104 556 c-8 -21 3 -36 27 -36 15 0 20 6 17 22 -4 27 -35 37 -44 14z"/>
<path d="M2882 538 c6 -18 28 -21 28 -4 0 9 -7 16 -16 16 -9 0 -14 -5 -12 -12z"/>
<path d="M4340 484 c0 -8 5 -12 10 -9 6 4 8 11 5 16 -9 14 -15 11 -15 -7z"/>
<path d="M0 464 c0 -14 4 -23 10 -19 13 8 13 45 0 45 -5 0 -10 -12 -10 -26z"/>
<path d="M2980 439 c0 -24 23 -21 28 4 2 10 -3 17 -12 17 -10 0 -16 -9 -16
-21z"/>
<path d="M3851 426 c-8 -10 -8 -16 2 -25 16 -13 27 -5 27 21 0 21 -13 23 -29
4z"/>
<path d="M797 416 c-7 -17 8 -31 40 -39 28 -6 37 5 20 26 -18 23 -54 31 -60
13z"/>
<path d="M3445 400 c-12 -20 6 -51 28 -48 31 4 31 52 0 56 -11 2 -24 -2 -28
-8z"/>
<path d="M3764 385 c-8 -20 4 -35 27 -35 20 0 23 8 13 34 -8 20 -33 21 -40 1z"/>
<path d="M5430 389 c0 -5 5 -7 10 -4 6 3 10 8 10 11 0 2 -4 4 -10 4 -5 0 -10
-5 -10 -11z"/>
<path d="M683 324 c-5 -15 11 -33 30 -34 15 0 20 32 6 41 -20 13 -29 11 -36
-7z"/>
<path d="M3012 308 c6 -18 28 -21 28 -4 0 9 -7 16 -16 16 -9 0 -14 -5 -12 -12z"/>
<path d="M3084 285 c-8 -46 0 -54 25 -24 26 31 27 59 1 59 -14 0 -21 -9 -26
-35z"/>
<path d="M4647 275 c-4 -8 -2 -17 2 -20 16 -9 71 7 71 21 0 20 -66 19 -73 -1z"/>
<path d="M5367 269 c6 -22 23 -26 23 -5 0 8 -6 16 -14 19 -10 4 -12 0 -9 -14z"/>
<path d="M288 263 c-20 -3 -28 -10 -28 -24 0 -17 6 -20 43 -17 35 2 43 7 45
26 4 23 0 24 -60 15z"/>
<path d="M1950 240 c0 -11 4 -20 9 -20 6 0 9 9 8 20 -1 11 -5 20 -9 20 -4 0
-8 -9 -8 -20z"/>
<path d="M2132 228 c3 -7 13 -15 22 -16 12 -3 17 1 14 10 -3 7 -13 15 -22 16
-12 3 -17 -1 -14 -10z"/>
<path d="M2377 233 c-14 -13 -6 -23 17 -23 30 0 42 15 20 24 -20 8 -29 8 -37
-1z"/>
<path d="M3140 211 c0 -24 40 -35 59 -17 19 20 5 36 -30 36 -22 0 -29 -5 -29
-19z"/>
<path d="M965 135 c-23 -19 -27 -27 -18 -36 16 -16 63 14 63 41 0 26 -8 25
-45 -5z"/>
<path d="M5364 145 c-9 -23 5 -35 40 -35 43 0 66 24 37 39 -28 16 -71 14 -77
-4z"/>
<path d="M145 80 c-4 -7 -3 -16 3 -22 14 -14 45 -2 40 15 -6 16 -34 21 -43 7z"/>
<path d="M3772 78 c-17 -17 -2 -38 28 -38 24 0 60 25 49 34 -12 10 -68 13 -77
4z"/>
<path d="M680 70 c0 -5 5 -10 10 -10 6 0 10 5 10 10 0 6 -4 10 -10 10 -5 0
-10 -4 -10 -10z"/>
<path d="M2674 59 c-34 -12 -38 -28 -9 -35 31 -8 55 1 55 20 0 18 -20 25 -46
15z"/>
<path d="M1560 20 c0 -26 6 -26 13 0 3 11 1 20 -4 20 -5 0 -9 -9 -9 -20z"/>
<path d="M4367 24 c-15 -15 -6 -24 24 -24 20 0 29 4 27 13 -5 14 -40 21 -51
11z"/>
<path d="M5013 23 c-24 -9 -13 -23 17 -23 22 0 28 4 24 15 -6 15 -19 18 -41 8z"/>
<path d="M4460 10 c0 -5 5 -10 10 -10 6 0 10 5 10 10 0 6 -4 10 -10 10 -5 0
-10 -4 -10 -10z"/>
</g>
</svg>
