<?xml version="1.0" encoding="UTF-8" standalone="no"?>
<svg
   xmlns:dc="http://purl.org/dc/elements/1.1/"
   xmlns:cc="http://creativecommons.org/ns#"
   xmlns:rdf="http://www.w3.org/1999/02/22-rdf-syntax-ns#"
   xmlns:svg="http://www.w3.org/2000/svg"
   xmlns="http://www.w3.org/2000/svg"
   xmlns:sodipodi="http://sodipodi.sourceforge.net/DTD/sodipodi-0.dtd"
   xmlns:inkscape="http://www.inkscape.org/namespaces/inkscape"
   version="1.1"
   id="Layer_1"
   x="0px"
   y="0px"
   width="100"
   height="25"
   viewBox="0 0 100 25"
   enable-background="new 0 0 584 149"
   xml:space="preserve"
   inkscape:version="0.92.4 (5da689c313, 2019-01-14)"
   sodipodi:docname="XVideos logo.svg"><title
     id="title4194">XVideos logo</title><metadata
     id="metadata8"><rdf:RDF><cc:Work
         rdf:about=""><dc:format>image/svg+xml</dc:format><dc:type
           rdf:resource="http://purl.org/dc/dcmitype/StillImage" /><dc:title>XVideos logo</dc:title><cc:license
           rdf:resource="http://scripts.sil.org/OFL" /></cc:Work><cc:License
         rdf:about="http://scripts.sil.org/OFL"><cc:permits
           rdf:resource="http://scripts.sil.org/pub/OFL/Reproduction" /><cc:permits
           rdf:resource="http://scripts.sil.org/pub/OFL/Distribution" /><cc:permits
           rdf:resource="http://scripts.sil.org/pub/OFL/Embedding" /><cc:permits
           rdf:resource="http://scripts.sil.org/pub/OFL/DerivativeWorks" /><cc:requires
           rdf:resource="http://scripts.sil.org/pub/OFL/Notice" /><cc:requires
           rdf:resource="http://scripts.sil.org/pub/OFL/Attribution" /><cc:requires
           rdf:resource="http://scripts.sil.org/pub/OFL/ShareAlike" /><cc:requires
           rdf:resource="http://scripts.sil.org/pub/OFL/DerivativeRenaming" /><cc:requires
           rdf:resource="http://scripts.sil.org/pub/OFL/BundlingWhenSelling" /></cc:License></rdf:RDF></metadata><defs
     id="defs6" /><sodipodi:namedview
     pagecolor="#ffffff"
     bordercolor="#666666"
     borderopacity="1"
     objecttolerance="1"
     gridtolerance="1"
     guidetolerance="1"
     inkscape:pageopacity="0"
     inkscape:pageshadow="2"
     inkscape:window-width="1366"
     inkscape:window-height="705"
     id="namedview4"
     showgrid="false"
     inkscape:showpageshadow="false"
     inkscape:zoom="3.2450729"
     inkscape:cx="54.215202"
     inkscape:cy="12.612086"
     inkscape:window-x="-8"
     inkscape:window-y="-8"
     inkscape:window-maximized="1"
     inkscape:current-layer="Layer_1"><inkscape:grid
       type="xygrid"
       id="grid4166" /></sodipodi:namedview><g
     id="layer103-2"
     transform="matrix(0.79031136,0,0,1.094549,-7913.6229,-891.15497)"
     style="display:inline;fill:#00ff00;fill-opacity:1;stroke:none" /><rect
     style="opacity:1;fill:#000000;fill-opacity:1;stroke:none;stroke-width:0.04428838;stroke-miterlimit:4;stroke-dasharray:none"
     id="rect887"
     width="99.207291"
     height="23.824413"
     x="0.43445113"
     y="0.70312333" /><g
     transform="matrix(0.21924942,0,0,0.21924942,-15.287654,-79.817657)"
     id="Straight-5"><path
       style="fill:#de2600"
       inkscape:connector-curvature="0"
       d="m 120.202,409.173 12.162,-24.889 h 19.798 l -21.142,36.555 22.768,37.191 H 133 L 120.414,432.645 107.828,458.03 H 88.03 l 21.707,-37.191 -21.141,-36.555 h 19.585 z"
       id="path2-9" /><path
       style="fill:#ffffff;stroke-width:0.21924943"
       d="M 74.300781 4.1875 C 72.254307 4.1875 70.595646 4.8250501 69.324219 6.1269531 C 68.052791 7.4286369 67.417969 9.070261 67.417969 11.054688 L 67.417969 13.970703 C 67.417969 15.970477 68.052791 17.613616 69.324219 18.900391 C 70.595646 20.186508 72.269932 20.837891 74.316406 20.837891 C 76.347314 20.837891 78.005858 20.186508 79.261719 18.900391 C 80.517799 17.598268 81.152344 15.970477 81.152344 13.970703 L 81.167969 13.970703 L 81.167969 11.054688 C 81.167969 9.0549135 80.533146 7.4288562 79.261719 6.1269531 C 77.975382 4.8401783 76.331469 4.1875 74.300781 4.1875 z M 89.306641 4.203125 C 87.508795 4.203125 86.019824 4.6221093 84.841797 5.4589844 C 83.66355 6.2956402 83.074219 7.3979291 83.074219 8.7460938 C 83.074219 10.141178 83.554991 11.195101 84.546875 11.939453 C 85.523631 12.684024 87.043808 13.366188 89.089844 14.017578 C 90.0666 14.374297 90.749027 14.699747 91.121094 15.009766 C 91.508288 15.319784 91.695312 15.752835 91.695312 16.326172 C 91.695312 16.822553 91.492561 17.225196 91.136719 17.550781 C 90.764652 17.8608 90.175218 18.015625 89.400391 18.015625 C 88.377373 18.015625 87.602069 17.81509 87.105469 17.412109 C 86.593741 17.009129 86.345703 16.342165 86.345703 15.412109 L 82.6875 15.412109 L 82.671875 15.474609 C 82.625175 17.211065 83.291964 18.544276 84.625 19.458984 C 85.958475 20.373693 87.540001 20.837891 89.384766 20.837891 C 91.214183 20.837891 92.686258 20.435525 93.787109 19.628906 C 94.887303 18.838731 95.445312 17.721139 95.445312 16.294922 C 95.445312 14.89918 94.980618 13.798587 94.050781 12.992188 C 93.120725 12.202013 91.741249 11.521158 89.896484 10.978516 C 88.702233 10.543963 87.897004 10.186869 87.462891 9.9082031 C 87.028996 9.6295371 86.810547 9.2572807 86.810547 8.7773438 C 86.810547 8.2814016 87.028996 7.8624755 87.462891 7.5371094 C 87.897443 7.2113047 88.484661 7.0410156 89.244141 7.0410156 C 90.019407 7.0410156 90.624699 7.2415508 91.058594 7.6445312 C 91.493146 8.0477309 91.710938 8.5597667 91.710938 9.2109375 L 95.353516 9.2109375 L 95.369141 9.1484375 C 95.415841 7.6910866 94.856097 6.498693 93.708984 5.5839844 C 92.562091 4.6692758 91.105144 4.203125 89.306641 4.203125 z M 55.0625 4.4355469 L 55.0625 20.605469 L 66.300781 20.605469 L 66.300781 17.722656 L 58.830078 17.722656 L 58.830078 13.691406 L 65.169922 13.691406 L 65.169922 10.791016 L 58.828125 10.791016 L 58.828125 7.3203125 L 66.332031 7.3203125 L 66.332031 4.4355469 L 55.0625 4.4355469 z M 18.291016 4.4375 L 23.515625 20.621094 L 27.576172 20.621094 L 32.816406 4.4375 L 28.878906 4.4375 L 25.669922 16.263672 L 25.560547 16.806641 L 25.5 16.806641 L 25.390625 16.21875 L 22.228516 4.4375 L 18.291016 4.4375 z M 34.103516 4.4375 L 34.103516 20.605469 L 37.855469 20.605469 L 37.855469 4.4375 L 34.103516 4.4375 z M 40.412109 4.4375 L 40.412109 20.605469 L 40.412109 20.619141 L 46.257812 20.619141 C 48.164186 20.619141 49.744475 19.99984 51.03125 18.759766 C 52.318683 17.520349 52.955078 15.938744 52.955078 13.986328 L 52.955078 11.070312 C 52.955078 9.1325861 52.317806 7.5369497 51.03125 6.296875 C 49.759823 5.0568003 48.164405 4.4375 46.257812 4.4375 L 40.412109 4.4375 z M 74.269531 7.0878906 C 75.261635 7.0878906 76.036997 7.458554 76.580078 8.203125 C 77.12272 8.9319101 77.400391 9.878336 77.400391 11.041016 L 77.402344 13.970703 C 77.402344 15.14873 77.138345 16.09332 76.595703 16.837891 C 76.053061 17.582242 75.292666 17.955078 74.300781 17.955078 C 73.277763 17.955078 72.501846 17.581585 71.958984 16.837891 C 71.416561 16.094197 71.138672 15.133383 71.138672 13.970703 L 71.138672 11.041016 C 71.138672 9.8778975 71.402451 8.932071 71.945312 8.1875 C 72.472388 7.4582764 73.261861 7.0878906 74.269531 7.0878906 z M 44.179688 7.3339844 L 46.009766 7.3339844 C 47.001869 7.3339844 47.7914 7.6753369 48.349609 8.3574219 C 48.908038 9.0401646 49.1875 9.9384887 49.1875 11.054688 L 49.1875 13.986328 C 49.1875 15.102308 48.907818 16.017134 48.349609 16.699219 C 47.7914 17.380646 47.017436 17.720703 46.009766 17.720703 L 44.179688 17.720703 L 44.179688 7.3339844 z "
       transform="matrix(4.5610155,0,0,4.5610155,69.727227,364.04957)"
       id="path4-9" /></g></svg>